<svg xmlns="http://www.w3.org/2000/svg" viewBox="0 0 149.48 170.1" width="100%" height="100%" preserveAspectRatio="none"><defs><style>.cls-1{fill:#fff;}</style></defs><g id="Layer_2"><g id="Layer_1-2"><path class="cls-1" d="M138.64,81.15a14.57,14.57,0,0,1,4.69,3.31c7.51,7.1,8.48,14.9,1.06,22.18-15,14.73-29.94,29.7-46.38,42.72-10.77,8.54-23.93,14.22-36.47,20.26-2.71,1.3-8.48-.19-10.89-2.46L12.06,129.89c-2.29-2.82-4.35-4.48-4.35-7.26,0-2.56,3.2-5.7,1.63-7.6C7,112.15,2.05,110.58.09,104.54c-.6-1.86,2-9.08,3.14-12.27a130,130,0,0,0,5-18.88c2.22-12,3.09-24.31,5.06-36.4,1.86-11.37,6.15-15.86,14-16.08,8.2-.24,12.38,5.46,14.76,17.74C44.47,36.83,66.25,15.79,75,7.12c9.17-9.13,17.46-9.93,25.37.24A28.81,28.81,0,0,1,102.52,12s3.78-2.15,4.87-2.61c10-4.19,19.7,5.62,17.32,16.28a15.06,15.06,0,0,1-2.42,5.23s5.12.72,7.19,2.31c3.61,2.77,4.61,6.65,4.39,12.94-.1,3-2.66,7-2.66,7A34.79,34.79,0,0,1,135,55C145.85,62,144.81,71.13,138.64,81.15Zm-24.49,23.3-.05,0a3.08,3.08,0,0,1-3.8-4.71l.13-.15c7.36-7.92,15.07-15.51,22.65-23.22,3.88-4,6.14-8.54,1.44-12.93s-9.11-1.8-12.94,2.1C114.21,73.08,107,80.74,99.3,87.93a5.39,5.39,0,0,1-.93.7c-3.2,1.92-6.73-2.36-4.21-5.13l0,0C104,73,114.1,62.83,124.26,52.72c4-4,6.25-8.62,2.3-13.06-4.73-5.33-9.46-2-13.47,2.05C103,51.9,93.05,62.19,82.77,72.15a3.54,3.54,0,0,1-.42.35c-3,2.24-7-1.61-4.8-4.62a3,3,0,0,1,.32-.39C85.2,59.53,93,52,100.57,44.27c4-4.07,6.87-8.65,1.49-13.58-5.15-4.71-9.07-1-12.72,2.65C79.64,43.06,70.1,53,60.18,62.46a61,61,0,0,1-8.32,6.3,3,3,0,0,1-4.59-2c-.47-3.18.31-8.46-.89-11.34-1.31-3.18-3.19-5.67-8.36-5.6-2.71,0-7.4,3.82-8,6.69-2.1,9.35-2.2,19.14-4.08,28.56-2.16,10.91-.51,22.67-9,32.27a4.65,4.65,0,0,0,.19,6.69c12.1,12.71,25.24,24.89,37.85,37.08a7,7,0,0,0,6.8,1c6.37-2.7,12.32-6.34,18.54-9.41,24.45-12.1,41.7-32.61,60-51.83C142,99.11,143,94.2,140,91.2c-3.64-3.61-8.13-2.07-10.36-.33a137.33,137.33,0,0,0-14.72,13A3.27,3.27,0,0,1,114.15,104.45ZM53.55,59.36c13.76-13.65,27.07-26.47,39.73-39.9,1.58-1.68,1.86-6.53-.92-9.64C89.1,6.18,84.11,8.17,82,10,69.79,20.79,55.93,33.46,44.73,44.16,52.55,48.67,53.55,59.36,53.55,59.36ZM14.08,109.27c1.23-2,1.86-3,2.07-4.56,1.43-10.1,3.76-20.15,4.85-31.06C22.11,62.45,19.5,49,33.61,42.16c1.57-.76,1.78-7.19.48-10.29-1.47-3.46-4.91-4-6.86-4-4.08,0-6.07,4.43-6.53,7-2.72,15.2-4.57,30.55-7,45.81-.57,3.63-2.5,7.33-3.47,10.46C6.39,103.59,6.38,104,14.08,109.27Zm97.48-75.7s7.76-4.56,7.76-11.51c0-1.91-2.73-8-7.85-7.35-6.69.86-11.22,8.09-11.22,8.09C106.85,24.39,110.65,27.18,111.56,33.57Z"/></g></g></svg>