<?xml version="1.0" encoding="utf-8"?>
<!-- Generator: Adobe Illustrator 24.2.3, SVG Export Plug-In . SVG Version: 6.00 Build 0)  -->
<svg version="1.1" id="Layer_1" xmlns="http://www.w3.org/2000/svg" xmlns:xlink="http://www.w3.org/1999/xlink" x="0px" y="0px"
	 viewBox="0 0 1237 1030.8" style="enable-background:new 0 0 1237 1030.8;" xml:space="preserve">
<style type="text/css">
	.st0{fill:#EB0A1E;}
	.st1{fill:#FFFFFF;}
</style>
<g>
	<g>
		<g>
			<path d="M232.2,84.3h-2.5v16.8h-12.3V55h18.8c10.6,0,16,6.4,16,13.8c0,5.4-2.8,10.4-8.2,13.2l12.1,19.1h-14.4L232.2,84.3z
				 M229.7,74.8h4.3c3.2,0,5.1-1.8,5.1-5s-1.9-4.9-5.1-4.9h-4.3V74.8z"/>
			<path d="M260.1,55h29.7v10.7h-17.4v7.2h16.9v10.3h-16.9v7.1h18v10.7h-30.3V55z"/>
			<path d="M324.8,89.9h-14l-3.6,11.2h-12.4L311.3,55h13.6l16.5,46.1h-13L324.8,89.9z M321.6,80.3l-3.9-12l-3.9,12H321.6z"/>
			<path d="M388.3,77.8c0,13.8-9.7,23.2-23.2,23.2h-19.4V55h19.4C378.6,55,388.3,64,388.3,77.8z M375.3,78c0-8.1-4.9-12.4-12.3-12.4
				h-5v24.9h5C370.5,90.5,375.3,85.9,375.3,78z"/>
			<path d="M413.9,83.6v17.5h-12.1V83.6L386.9,55h13.5l8.2,17.1l8.2-17.1h11.9L413.9,83.6z"/>
			<path d="M442.9,97.3L446,86c3.8,2.7,9,4.9,13.7,4.9c3.3,0,4.7-1.2,4.7-3.1c0-2.1-1.7-2.7-7.7-5c-7.9-3-12.6-6.5-12.6-14
				c0-9.2,6.9-14.5,17-14.5c5.4,0,11.4,1.6,14.5,3.4L471.9,68c-3.2-1.8-7.6-2.9-10.6-2.9c-2.8,0-4.7,0.9-4.7,2.6
				c0,2.2,3.1,3.3,8.3,5.1c7.5,2.7,12.1,5.5,12.1,13.5c0,9.7-6.7,15.4-17.8,15.4C453.2,101.7,447.3,100.1,442.9,97.3z"/>
			<path d="M481.8,55h29.7v10.7h-17.4v7.2H511v10.3h-16.9v7.1h18v10.7h-30.3V55z"/>
			<path d="M551.6,65.6h-11.5v35.4h-12.3V65.6h-11.5V55h35.3V65.6z"/>
		</g>
		<g>
			<path class="st0" d="M284.4,138.7V178h-16.7v-6.4c-3.7,4-10.2,7.4-19.1,7.4c-18,0-32.3-13.9-32.3-35.1c0-22.7,16.3-36,36.7-36
				c10.7,0,19.2,3.7,25.9,8.2l-6.7,16.5c-5.4-4.3-12.1-7.4-19.1-7.4c-9.2,0-17.4,5.3-17.4,18.7c0,12.5,7,17.8,16.3,17.8
				c7.9,0,12.8-3.9,14.6-8.3h-15.4v-14.5H284.4z"/>
			<path class="st0" d="M289.1,143.3c0-21.8,15.6-35.5,36.5-35.5c20.9,0,36.5,13.8,36.5,35.2s-15.6,35.8-36.7,35.8
				C304.8,178.8,289.1,165.1,289.1,143.3z M342.7,143.3c0-10.8-6.9-18.1-17.1-18.1c-10.2,0-17.1,7.3-17.1,18.1
				c0,10.7,6.9,18.1,17.1,18.1C335.8,161.4,342.7,154,342.7,143.3z"/>
			<path class="st0" d="M364.6,108.8h19.7l-2.9,42.3h-13.8L364.6,108.8z M364.7,169.8c0-5.5,4.4-9.8,9.8-9.8s9.8,4.4,9.8,9.8
				c0,5.5-4.4,9.8-9.8,9.8S364.7,175.2,364.7,169.8z"/>
		</g>
	</g>
</g>
<g>
	<g>
		<rect x="63.7" y="55" class="st0" width="122.9" height="122.9"/>
	</g>
	<path class="st1" d="M125.3,85.8c-25.5,0-45.2,13-45.2,30.7s19.7,30.7,45.2,30.7s45.2-13,45.2-30.7S150.9,85.8,125.3,85.8z
		 M153,100.3c0,4.1-6.5,7.2-16.9,8.5c-1-9.7-3.8-16.1-7.4-18.5C139.8,90.9,153,94.8,153,100.3z M125.3,133.1
		c-3.6,0-6.6-5.6-6.8-16.5c2.2,0.2,4.4,0.3,6.8,0.3s4.6-0.1,6.8-0.3C131.9,127.5,129,133.1,125.3,133.1z M125.3,109.3
		c-2.2,0-4.4-0.1-6.4-0.2c1-6.5,3.5-11.9,6.4-11.9c2.9,0,5.4,5.4,6.4,11.9C129.7,109.3,127.6,109.3,125.3,109.3z M122,90.2
		c-3.6,2.4-6.4,8.8-7.4,18.5c-10.4-1.3-16.9-4.4-16.9-8.5C97.7,94.8,110.9,90.9,122,90.2z M87.8,115.3c0-4.5,1.4-8.5,4-11.9
		c1,5.8,9.5,10.9,22.5,12.7c0,0.1,0,0.3,0,0.4c0,14.2,3.3,23.4,7.9,26.3C102.9,141.6,87.8,129.7,87.8,115.3z M128.6,142.8
		c4.5-2.9,7.9-12.1,7.9-26.3c0-0.1,0-0.3,0-0.4c13-1.8,21.5-6.9,22.5-12.7c2.5,3.4,4,7.5,4,11.9
		C162.9,129.7,147.8,141.6,128.6,142.8z"/>
</g>
</svg>
