<svg xmlns="http://www.w3.org/2000/svg" viewBox="0 0 131.45 95.18" width="100%" height="100%" preserveAspectRatio="none"><defs><style>.cls-1{fill:#fff;}</style></defs><g id="Layer_2"><g id="Layer_1-2"><circle class="cls-1" cx="22.15" cy="13.11" r="13.11" transform="translate(-2.42 5.44) rotate(-13.28)"/><rect class="cls-1" y="28.34" width="44.3" height="66.84" rx="22.15"/><circle class="cls-1" cx="109.3" cy="13.11" r="13.11"/><path class="cls-1" d="M109.3,28.34A22.15,22.15,0,0,0,87.15,50.49V73a22.15,22.15,0,0,0,44.3,0V50.49A22.15,22.15,0,0,0,109.3,28.34Z"/><polygon class="cls-1" points="93.13 25.81 81.63 16.57 81.63 22.43 49.81 22.43 49.81 16.57 38.32 25.81 49.81 35.06 49.81 29.2 81.63 29.2 81.63 35.06 93.13 25.81"/></g></g></svg>