<svg xmlns="http://www.w3.org/2000/svg" viewBox="0 0 591.79 271.71" width="100%" height="100%" preserveAspectRatio="none"><defs><style>.cls-1{fill:#fff;}.cls-2{fill:#012169;}</style></defs><g id="Layer_2"><g id="DIGITAL_ADA_2"><path class="cls-1" d="M591.79,92.18V271.71H172.09L90.51,186.85l-2.13-2.22a52.51,52.51,0,0,1-14.49-40.46A53.24,53.24,0,0,1,94.73,106c11.8-9,28.05-12,43.47-8A51.48,51.48,0,0,1,159,108.59a50.46,50.46,0,0,1,4.36,4.17c-.38.4-.75.81-1.12,1.23l-.06.08c-.38.43-.75.86-1.11,1.31s-.66.81-1,1.23c-.8,1-1.57,2.11-2.3,3.22-.37.56-.72,1.12-1.07,1.69s-.69,1.15-1,1.74c-.23.39-.68,1.23-.7,1.25a37.5,37.5,0,0,0-20.21-13c-11.14-2.85-23.22-.7-31.52,5.62a39.25,39.25,0,0,0-15.36,28.16,38.14,38.14,0,0,0,4,20.37,38.86,38.86,0,0,0,6.64,9.31l2.73,2.84,78.25,81.37H579.22V104.76H531.48V78.06H446.2L296,13.68l-150,64.38H60.33v26.7H12.56V259.14h128.3v12.57H0V92.17H47.74V65.47h95.34L296,0,448.77,65.47H544V92.18Z"/><path class="cls-2" d="M252.64,152.78a53.72,53.72,0,0,1-1.72,9.44,52.6,52.6,0,0,1-5.69,13.13,51.41,51.41,0,0,1-4.59,6.45c-.78.93-1.59,1.84-2.44,2.72l-6.61,6.88-5.4,5.61-9.14,9.51-34.37,35.81,0-.05-27.7-28.79,10.39-9.41,17.29,18,24.75-25.74,9.14-9.51,5.39-5.6,6.21-6.46a40.06,40.06,0,0,0,2.78-3.22,38,38,0,0,0,7.94-22,39,39,0,0,0-.1-4.45,38.52,38.52,0,0,0-1.67-8.64A39.3,39.3,0,0,0,223.37,117a32.25,32.25,0,0,0-9.77-5,38.39,38.39,0,0,0-12.47-1.8,39.15,39.15,0,0,0-8.78,1.14,38.23,38.23,0,0,0-6.32,2.15,37.34,37.34,0,0,0-6.95,4,38.42,38.42,0,0,0-7.42,7.06H154.94s.47-.86.7-1.25q.5-.89,1-1.74c.35-.57.7-1.13,1.07-1.69.73-1.11,1.5-2.18,2.3-3.22.33-.42.65-.83,1-1.23s.73-.88,1.11-1.31l.06-.08c.37-.42.74-.83,1.12-1.23l.05-.06a51.11,51.11,0,0,1,12.54-9.82A52.13,52.13,0,0,1,189,97.73l.19,0a54,54,0,0,1,9.38-1.43h0a52.1,52.1,0,0,1,21.07,3h0a46,46,0,0,1,12.21,6.63,53.27,53.27,0,0,1,20.84,38.22A54,54,0,0,1,252.64,152.78Z"/><g id="SAFE"><path class="cls-2" d="M427.84,224.86c-1.44,1.45-4.09,3-5.66,3-2.1,0-3.28-1.84-3.28-4.86V200.71c0-16.67-14.18-27.7-34.13-27.7-18.24,0-33.54,9.45-34.72,21.92h24.61c2-3.78,4.6-4.2,10.64-4.2,4.85,0,8.79,2.76,8.79,6.17,0,2.76-2.23,4.6-5.25,5l-11.29,1.05c-19,2-29.79,10.24-29.79,22.31,0,11.55,9.71,19,23.23,19,10.89,0,19.56-5.51,23.63-13.12l.26,1.44c1.05,6.3,8.66,11.68,17.85,11.68,6.69,0,10.56-.77,15.12-3.41ZM393.7,215.8a11.59,11.59,0,0,1-11.95,11.95c-5,0-8.66-2.37-8.66-5.91s3.15-6.17,11.42-6.83l9.19-.91Z"/><path class="cls-2" d="M462.58,171.22c0-4.86,2.76-8.27,6.57-8.27s5.79,1.67,5.85,8h22.38a25.56,25.56,0,0,0-.56-5.78c-1.7-12.34-13.11-20.34-29.12-20.34-17.85,0-30.45,9.84-30.45,24.8v7.09H426.64V195.5h10.61v46.65h25.33V195.5H476V176.73H462.58Z"/><path class="cls-2" d="M314,199.4c-8.14-1.05-14.7-1.31-14.7-5.78-.13-3.28,3.15-5.77,7.74-5.77,5.38,0,9.58,3,10.11,7.09h20.76a15.6,15.6,0,0,0-.42-4.47c-2.1-10.89-14.7-17.85-30.18-17.85-17.59,0-30.19,9.32-30.32,23.24,0,15.35,14.7,19.16,27,20.47,7.75.79,15.88,2.1,15.88,6.83,0,3.41-4.46,5.77-10.5,5.77-7.48,0-13.12-3.81-13.78-9.19H273.57a37.05,37.05,0,0,0,.56,3.94c2.1,13.13,16.27,21,34.91,21,20.48,0,35.18-9.45,35-24.28C344.08,204.26,326.89,201.11,314,199.4Z"/><path class="cls-2" d="M552.65,208.71c0-21.78-14-35.56-36.1-35.56s-37.67,13.78-37.53,35.3c0,21.26,17.32,35.83,41.08,35.83,14.3,0,28.51-5.83,31.12-22l-21.5-.16c-2.54,4.76-6.32,4.8-10.35,4.84-9.32.08-13.32-4.73-14.37-11.42h47.38C552.52,214.23,552.65,210.68,552.65,208.71Zm-47.91-6.43c1.44-7.22,5.38-11.94,11.42-11.94,6.3,0,10.63,5.51,11,11.94Z"/></g><g id="LOWES"><polygon class="cls-1" points="390.1 119.21 390.09 128.13 395.86 128.14 397.06 119.22 390.1 119.21"/><path class="cls-1" d="M421.82,128.35a.75.75,0,0,0,.75-.8c0-.58-.33-.83-1-.83h-1.11v2.91h.44v-1.26h.51l.77,1.26h.49Zm-.94-.35v-.9h.6c.31,0,.64.06.64.42s-.33.48-.71.48Zm.94.35a.75.75,0,0,0,.75-.8c0-.58-.33-.83-1-.83h-1.11v2.91h.44v-1.26h.51l.77,1.26h.49Zm-.94-.35v-.9h.6c.31,0,.64.06.64.42s-.33.48-.71.48Zm.94.35a.75.75,0,0,0,.75-.8c0-.58-.33-.83-1-.83h-1.11v2.91h.44v-1.26h.51l.77,1.26h.49Zm-.94-.35v-.9h.6c.31,0,.64.06.64.42s-.33.48-.71.48Zm.94.35a.75.75,0,0,0,.75-.8c0-.58-.33-.83-1-.83h-1.11v2.91h.44v-1.26h.51l.77,1.26h.49Zm-.94-.35v-.9h.6c.31,0,.64.06.64.42s-.33.48-.71.48Zm.94.35a.75.75,0,0,0,.75-.8c0-.58-.33-.83-1-.83h-1.11v2.91h.44v-1.26h.51l.77,1.26h.49Zm-.94-.35v-.9h.6c.31,0,.64.06.64.42s-.33.48-.71.48Zm.94.35a.75.75,0,0,0,.75-.8c0-.58-.33-.83-1-.83h-1.11v2.91h.44v-1.26h.51l.77,1.26h.49Zm-.94-.35v-.9h.6c.31,0,.64.06.64.42s-.33.48-.71.48Zm.53-2.35a2.53,2.53,0,1,0,2.57,2.52A2.52,2.52,0,0,0,421.41,125.65Zm0,4.63a2.11,2.11,0,1,1,2-2.11A2,2,0,0,1,421.41,130.28Zm1.16-2.73c0-.58-.33-.83-1-.83h-1.11v2.91h.44v-1.26h.51l.77,1.26h.49l-.83-1.28A.75.75,0,0,0,422.57,127.55Zm-1.69.45v-.9h.6c.31,0,.64.06.64.42s-.33.48-.71.48Zm.94.35a.75.75,0,0,0,.75-.8c0-.58-.33-.83-1-.83h-1.11v2.91h.44v-1.26h.51l.77,1.26h.49Zm-.94-.35v-.9h.6c.31,0,.64.06.64.42s-.33.48-.71.48Zm.94.35a.75.75,0,0,0,.75-.8c0-.58-.33-.83-1-.83h-1.11v2.91h.44v-1.26h.51l.77,1.26h.49Zm-.94-.35v-.9h.6c.31,0,.64.06.64.42s-.33.48-.71.48Zm.94.35a.75.75,0,0,0,.75-.8c0-.58-.33-.83-1-.83h-1.11v2.91h.44v-1.26h.51l.77,1.26h.49Zm-.94-.35v-.9h.6c.31,0,.64.06.64.42s-.33.48-.71.48Zm.94.35a.75.75,0,0,0,.75-.8c0-.58-.33-.83-1-.83h-1.11v2.91h.44v-1.26h.51l.77,1.26h.49Zm-.94-.35v-.9h.6c.31,0,.64.06.64.42s-.33.48-.71.48Z"/><polygon class="cls-1" points="284.86 149.58 284.86 119.21 276.55 119.21 276.55 156.82 297.71 156.82 297.71 149.58 284.86 149.58"/><polygon class="cls-1" points="368.49 156.82 388.26 156.82 388.26 149.57 376.84 149.57 376.84 144.85 388.26 144.85 388.26 137.89 376.84 137.89 376.84 133.14 388.26 133.14 388.26 125.86 368.49 125.86 368.49 125.9 368.49 156.82"/><path class="cls-1" d="M321.07,125.86H305a4,4,0,0,0-3.95,4v23a4,4,0,0,0,3.95,3.95h16.05a4,4,0,0,0,3.95-3.95v-23A4,4,0,0,0,321.07,125.86Zm-4.37,23.69h-7.31V133.14h7.31Z"/><path class="cls-1" d="M355.41,125.86v23.72h-5V125.86h-7.31v23.72h-5V125.86h-8.33v27a4,4,0,0,0,4,4h9.83a3,3,0,0,0,3.2-2.8,3,3,0,0,0,3.21,2.8h9.83a4,4,0,0,0,4-4v-27Z"/><path class="cls-1" d="M417.43,145.12h0l-.06-.12-.09-.19-.06-.1c-1.31-2.64-4.26-4.85-9-6.74l-.16-.07c-.94-.36-3.8-1.49-4.12-3.3a2.11,2.11,0,0,1,.68-1.8,3.75,3.75,0,0,1,2.73-.91,15.58,15.58,0,0,1,5.28,1.25l4.52,1.9.22.09v-6.76l-.08,0a27.12,27.12,0,0,0-9.17-3.55c-.53-.05-1.05-.07-1.55-.07-4.22,0-7.42,1.54-9.5,4.56a9.57,9.57,0,0,0-.45,9.35c1.91,3.32,5,4.71,7.94,6.05a37.9,37.9,0,0,1,3.67,1.82h0c1.34.81,2,2,1.74,3.13s-1.58,1.89-3.23,1.89c-.22,0-.45,0-.67,0H406c-3.15-.44-9.54-2.82-9.6-2.84l-.21-.08V156l.11,0A43.76,43.76,0,0,0,408,158.08h0c3,0,5.25-.61,6.71-1.8a10.37,10.37,0,0,0,3.54-7.3A8.38,8.38,0,0,0,417.43,145.12Z"/></g></g></g></svg>