<svg id="Layer_1" xmlns="http://www.w3.org/2000/svg" viewBox="0 0 69.66 31.98" width="100%" height="100%" preserveAspectRatio="none"><defs><style>.cls-1{fill:#002169;}.cls-2{fill:#fff;}</style></defs><title>lowes</title><polygon class="cls-1" points="52.82 7.71 64.04 7.71 64.04 10.85 69.66 10.85 69.66 31.98 0 31.98 0 10.85 5.62 10.85 5.62 7.71 16.84 7.71 34.83 0 52.82 7.71"/><polygon class="cls-2" points="51.45 13.33 51.44 16.74 53.65 16.75 54.11 13.33 51.45 13.33"/><path class="cls-2" d="M62.46,16.76a1,1,0,1,1,1,1,1,1,0,0,1-1-1m1,.81a.81.81,0,1,0-.79-.81.78.78,0,0,0,.79.81m-.21-.25h-.17V16.2h.43c.26,0,.39.1.39.32a.29.29,0,0,1-.29.31l.32.49h-.19l-.29-.48h-.2Zm.21-.62c.14,0,.27,0,.27-.19s-.13-.16-.25-.16h-.23v.35Z"/><polygon class="cls-2" points="11.11 24.97 11.11 13.32 7.93 13.32 7.93 27.74 16.04 27.74 16.04 24.97 11.11 24.97"/><polygon class="cls-2" points="43.16 27.74 50.74 27.74 50.74 24.96 46.36 24.96 46.36 23.15 50.74 23.15 50.74 20.48 46.36 20.48 46.36 18.66 50.74 18.66 50.74 15.88 43.16 15.88 43.16 15.89 43.16 27.74"/><path class="cls-2" d="M26.51,26.22A1.52,1.52,0,0,1,25,27.74H18.84a1.51,1.51,0,0,1-1.51-1.52V17.39a1.5,1.5,0,0,1,1.51-1.51H25a1.51,1.51,0,0,1,1.52,1.51Zm-3.2-7.56h-2.8V25h2.8Z"/><path class="cls-2" d="M38.15,15.88V25H36.23V15.88h-2.8V25H31.51V15.88H28.32V26.22a1.52,1.52,0,0,0,1.51,1.52H33.6a1.16,1.16,0,0,0,1.23-1.08,1.16,1.16,0,0,0,1.23,1.08h3.77a1.51,1.51,0,0,0,1.51-1.52V15.88Z"/><path class="cls-2" d="M61.92,23.26h0l0-.05,0-.07,0,0a6.17,6.17,0,0,0-3.46-2.58l-.06,0c-.36-.14-1.46-.57-1.58-1.26a.83.83,0,0,1,.26-.69,1.45,1.45,0,0,1,1.05-.35,5.88,5.88,0,0,1,2,.48l1.73.73.08,0V16.84l0,0a10.75,10.75,0,0,0-3.52-1.36l-.59,0a4.15,4.15,0,0,0-3.64,1.74,3.69,3.69,0,0,0-.18,3.59A6,6,0,0,0,57,23.09a13.06,13.06,0,0,1,1.4.7h0a1.17,1.17,0,0,1,.67,1.2,1.2,1.2,0,0,1-1.24.72h-.29a26.06,26.06,0,0,1-3.68-1.09l-.08,0v2.84l0,0a17.35,17.35,0,0,0,4.5.79h0a4,4,0,0,0,2.58-.69,4,4,0,0,0,1.35-2.8,3.17,3.17,0,0,0-.33-1.47"/></svg>