<svg xmlns="http://www.w3.org/2000/svg" viewBox="0 0 169.4 107.36" width="100%" height="100%" preserveAspectRatio="none"><defs><style>.cls-1{fill:#fff;}</style></defs><g id="Layer_2"><g id="Layer_1-2"><path class="cls-1" d="M160.13,22.06c-5.06-5.22-11.8-8.27-20.08-9.11V12.7H108.64C105.34,8.75,96.88.17,85.54,0c-11.69-.14-19,8.3-21.9,12.6l-34.13.12v.56c-8.35.82-15.15,3.87-20.24,9.14C0,32,0,45.41,0,46.86c-.15,16.67,4,28.46,12.4,35a26.49,26.49,0,0,0,16.49,5.43,30.35,30.35,0,0,0,3.44-.19c5.26,6.15,20.74,20.24,52.18,20.24h1.07c33.22-.33,47.29-14.14,52-20.53.85.08,1.81.14,2.9.14A26.49,26.49,0,0,0,157,81.53c8.39-6.56,12.55-18.35,12.4-35C169.42,45.06,169.39,31.64,160.13,22.06ZM17.87,74.74C11.93,70,8.87,60.4,9,46.88v-.16c0-.11-.16-11,6.79-18.1,3.38-3.46,8-5.57,13.72-6.29v56A17.84,17.84,0,0,1,17.87,74.74ZM85.49,98.35h-1c-30,0-43-14-46-17.87V21.69l27.66-.1,2.71,0,1.26-2.39C70.2,19.07,75.63,9,85.21,9h.2c9.76.14,17.28,10.67,17.34,10.77l1.35,1.93h26.79V80.77C128.36,84.6,117.21,98,85.49,98.35Zm74.91-52v.17c.13,13.52-2.93,23.15-8.87,27.86A17.9,17.9,0,0,1,140.05,78V22c5.67.73,10.21,2.83,13.56,6.26C160.51,35.36,160.4,46.09,160.4,46.36Z"/><rect class="cls-1" x="59.18" y="55.73" width="51.19" height="8.26"/><rect class="cls-1" x="70.08" y="75.72" width="29.39" height="8.26"/><polygon class="cls-1" points="85.59 21.05 62.27 34.56 51.75 34.56 51.75 43.56 64.69 43.56 85.29 31.63 103.41 43.56 117.81 43.56 117.81 34.56 106.11 34.56 85.59 21.05"/></g></g></svg>