<svg xmlns="http://www.w3.org/2000/svg" viewBox="0 0 94.47 145.14" width="100%" height="100%" preserveAspectRatio="none"><defs><style>.cls-1{fill:#fff;}</style></defs><g id="Layer_2"><g id="Layer_1-2"><path class="cls-1" d="M87.61,88.93a9,9,0,0,1,3,2.09c4.75,4.49,5.36,9.42.68,14-9.48,9.31-18.92,18.77-29.31,27-6.81,5.4-15.13,9-23,12.8-1.71.83-5.36-.12-6.88-1.55L7.62,119.73c-1.45-1.78-2.75-2.83-2.75-4.59s2-3.6,1-4.8c-1.5-1.82-4.61-2.81-5.84-6.63C-.33,102.54,1.33,98,2,96A82.32,82.32,0,0,0,5.24,84c1.39-7.61,1.94-15.37,3.19-23,1.18-7.18,3.89-10,8.84-10.16,5.18-.15,7.83,3.45,9.33,11.21,1.5-1.15,15.27-14.45,20.77-19.93,5.79-5.76,11-6.27,16,.16a17.77,17.77,0,0,1,1.38,2.92s2.39-1.35,3.08-1.64c6.3-2.66,12.45,3.54,11,10.28a9.71,9.71,0,0,1-1.53,3.31s3.24.45,4.54,1.45c2.28,1.76,2.92,4.21,2.78,8.18a11.65,11.65,0,0,1-1.68,4.46,21,21,0,0,1,2.38,1.13C92.17,76.81,91.51,82.6,87.61,88.93ZM72.14,103.65l0,0a1.94,1.94,0,0,1-2.4-3l.09-.1c4.64-5,9.52-9.8,14.31-14.68,2.45-2.49,3.88-5.39.91-8.17s-5.76-1.13-8.18,1.33c-4.66,4.75-9.23,9.59-14.08,14.13a2.77,2.77,0,0,1-.58.44,2.13,2.13,0,0,1-2.67-3.23l0,0c6.2-6.59,12.57-13,19-19.42,2.53-2.51,4-5.45,1.46-8.25-3-3.37-6-1.27-8.51,1.3C65.1,70.44,58.8,76.94,52.3,83.24a2.75,2.75,0,0,1-.26.22,2.14,2.14,0,0,1-3-2.92,2.43,2.43,0,0,1,.2-.25c4.63-5,9.58-9.76,14.35-14.67,2.5-2.57,4.34-5.46.93-8.58-3.25-3-5.72-.64-8,1.67C50.33,64.86,44.3,71.11,38,77.11a37.69,37.69,0,0,1-5.26,4,1.88,1.88,0,0,1-2.9-1.28c-.29-2,.2-5.35-.56-7.17-.83-2-2-3.58-5.29-3.54-1.7,0-4.67,2.41-5.08,4.23-1.32,5.91-1.39,12.09-2.57,18-1.37,6.89-.32,14.32-5.67,20.39a3,3,0,0,0,.12,4.23c7.64,8,16,15.72,23.92,23.43a4.44,4.44,0,0,0,4.3.66c4-1.7,7.78-4,11.71-5.94,15.46-7.65,26.35-20.61,37.89-32.76a4.75,4.75,0,0,0-.19-6.12,4.85,4.85,0,0,0-6.54-.21,86.55,86.55,0,0,0-9.31,8.24A1.89,1.89,0,0,1,72.14,103.65ZM33.84,75.16C42.53,66.53,51,58.43,59,49.94c1-1.06,1.18-4.13-.58-6.09-2.06-2.3-5.22-1-6.55.13-7.72,6.8-16.48,14.81-23.55,21.57C33.21,68.4,33.84,75.16,33.84,75.16ZM8.9,106.7a7.4,7.4,0,0,0,1.31-2.88c.9-6.38,2.37-12.74,3.06-19.63.71-7.08-.95-15.6,8-19.9,1-.48,1.13-4.54.3-6.5a4.43,4.43,0,0,0-4.33-2.53c-2.58,0-3.84,2.8-4.13,4.42C11.36,69.28,10.19,79,8.67,88.63c-.36,2.3-1.58,4.64-2.19,6.61C4,103.11,4,103.39,8.9,106.7ZM70.5,58.86s4.9-2.88,4.9-7.27c0-1.21-1.72-5.07-5-4.65-4.23.55-7.1,5.12-7.1,5.12C67.52,53.06,69.92,54.82,70.5,58.86Z"/><circle class="cls-1" cx="34.31" cy="26.79" r="14.56"/><circle class="cls-1" cx="49.76" cy="6.12" r="6.12"/><circle class="cls-1" cx="62.66" cy="23.64" r="9.08"/></g></g></svg>