<svg xmlns="http://www.w3.org/2000/svg" viewBox="0 0 146.8 288.91" width="100%" height="100%" preserveAspectRatio="none"><defs><style>.cls-1{fill:#fff;}</style></defs><g id="Layer_2"><g id="Layer_1-2"><path class="cls-1" d="M141.89,145.17,120.36,88.63a6.87,6.87,0,0,1-.45-2.37l-.35-29.33a6.93,6.93,0,0,1,2.13-5.08l7.69-3.17.52-.41a15.88,15.88,0,0,0,5.89-12.37V23.31A16,16,0,0,0,126.85,9c-1.43-.8-9.66-5.37-13.73-6.76A34.46,34.46,0,0,0,99.44,0H7V36H28.92c-.86,11.21-5.18,41.08-26.73,62.2L0,100.4l2.32,5.65H30.2a5.55,5.55,0,0,0,4.13-1.84A126.25,126.25,0,0,0,50.61,80.87v19.69a85.73,85.73,0,0,1-4.72,28.08l-19.64,56.9a79.71,79.71,0,0,0-4.38,26.1V273a15.94,15.94,0,0,0,15.92,15.92h93.09A15.94,15.94,0,0,0,146.8,273V171.89A74.88,74.88,0,0,0,141.89,145.17ZM99.44,9a25.77,25.77,0,0,1,10.78,1.76c2.91,1,9.9,4.78,12.34,6.16l.28.14a7,7,0,0,1,4,6.25V35.9a6.88,6.88,0,0,1-2.13,5L117,44.07l-.51.41A15.83,15.83,0,0,0,110.56,57v.8h-51V28.35H38.14V9ZM59.61,65.77h51.06l.13,11H59.61ZM16,27V9H29.14V27Zm12.62,70H15.38C33,75.14,37,48.87,37.88,37.35H50.61V49.7C50.61,69.93,33.42,91.44,28.63,97.05ZM137.8,273a6.93,6.93,0,0,1-6.92,6.92H37.79A6.93,6.93,0,0,1,30.87,273V211.64a70.78,70.78,0,0,1,3.89-23.16l19.64-56.9a94.93,94.93,0,0,0,5.21-31V84.7h51.28l0,1.66a15.81,15.81,0,0,0,1,5.48l21.52,56.54a65.78,65.78,0,0,1,4.33,23.51Z"/><path class="cls-1" d="M113.49,178.63H60.58a9.53,9.53,0,0,0-9.53,9.53v67a9.53,9.53,0,0,0,9.53,9.53h52.91a9.54,9.54,0,0,0,9.53-9.53v-67A9.54,9.54,0,0,0,113.49,178.63Zm.53,76.53a.53.53,0,0,1-.53.53H60.58a.53.53,0,0,1-.53-.53v-67a.53.53,0,0,1,.53-.53h52.91a.53.53,0,0,1,.53.53Z"/></g></g></svg>